<?xml version="1.0" encoding="UTF-8" standalone="no"?>
<svg
   viewBox="0 0 250 250"
   version="1.1"
   id="svg1"
   sodipodi:docname="circle-quarter-solid.svg"
   width="250"
   height="250"
   inkscape:version="1.3.2 (091e20ef0f, 2023-11-25)"
   inkscape:export-filename="Go90-Icon-1x.png"
   inkscape:export-xdpi="49.152"
   inkscape:export-ydpi="49.152"
   xmlns:inkscape="http://www.inkscape.org/namespaces/inkscape"
   xmlns:sodipodi="http://sodipodi.sourceforge.net/DTD/sodipodi-0.dtd"
   xmlns="http://www.w3.org/2000/svg"
   xmlns:svg="http://www.w3.org/2000/svg">
  <defs
     id="defs1" />
  <sodipodi:namedview
     id="namedview1"
     pagecolor="#f1f1f1"
     bordercolor="#000000"
     borderopacity="0.25"
     inkscape:showpageshadow="2"
     inkscape:pageopacity="0.0"
     inkscape:pagecheckerboard="0"
     inkscape:deskcolor="#d1d1d1"
     showgrid="false"
     showguides="false"
     inkscape:zoom="1.2447958"
     inkscape:cx="143.39701"
     inkscape:cy="108.85319"
     inkscape:window-width="1503"
     inkscape:window-height="933"
     inkscape:window-x="0"
     inkscape:window-y="0"
     inkscape:window-maximized="1"
     inkscape:current-layer="svg1"
     inkscape:export-bgcolor="#f1f1f1ff" />
  <!--!Font Awesome Pro 6.5.2 by @fontawesome - https://fontawesome.com License - https://fontawesome.com/license (Commercial License) Copyright 2024 Fonticons, Inc.-->
  <path
     id="path1"
     style="mix-blend-mode:color;fill:#1f212d;fill-opacity:1;stroke-width:0.944;stroke-dasharray:none"
     d="M 217.94531 5.0019531 C 216.93822 5.0117026 215.91733 5.0791764 214.88477 5.2089844 C 105.46844 18.803421 18.803421 105.46844 5.2089844 214.88477 C 3.1320566 231.40578 16.821422 245 33.53125 245 L 214.79102 245 C 231.50085 245 245 231.50085 245 214.79102 L 245 33.53125 C 245 17.865786 233.05174 4.8557117 217.94531 5.0019531 z M 86.15625 96.78125 L 152.30469 96.78125 C 161.42592 96.78125 168.8418 104.19519 168.8418 113.31641 L 168.8418 179.46484 C 168.8418 188.58606 161.42592 196.00195 152.30469 196.00195 L 86.15625 196.00195 C 77.035027 196.00195 69.619141 188.58606 69.619141 179.46484 L 69.619141 113.31641 C 69.619141 104.19519 77.035027 96.78125 86.15625 96.78125 z M 209.76758 105.06445 C 211.23718 104.99017 212.72938 105.30776 214.08594 106.03125 C 216.7732 107.47825 218.45312 110.26739 218.45312 113.31641 L 218.45312 179.46484 C 218.45312 182.51386 216.7732 185.30496 214.08594 186.75195 C 211.39866 188.19895 208.14401 188.04523 205.58594 186.33984 L 180.7793 169.80273 L 177.10938 167.34766 L 177.10938 162.92773 L 177.10938 129.85352 L 177.10938 125.43555 L 180.7793 122.98047 L 205.58594 106.44336 C 206.85206 105.60359 208.29798 105.13874 209.76758 105.06445 z " />
</svg>
